<?xml version="1.0" encoding="UTF-8"?>
<svg version="1.1" xmlns="http://www.w3.org/2000/svg" width="1350" height="640">
<path d="M0 0 C445.5 0 891 0 1350 0 C1350 211.2 1350 422.4 1350 640 C904.5 640 459 640 0 640 C0 428.8 0 217.6 0 0 Z " fill="#4F64FE" transform="translate(0,0)"/>
<path d="M0 0 C116.82 0 233.64 0 354 0 C354 211.2 354 422.4 354 640 C236.85 640 119.7 640 -1 640 C-0.67 428.8 -0.34 217.6 0 0 Z " fill="#FFFFFF" transform="translate(996,0)"/>
<path d="M0 0 C116.82 0 233.64 0 354 0 C354 211.2 354 422.4 354 640 C237.18 640 120.36 640 0 640 C0 428.8 0 217.6 0 0 Z " fill="#FFFFFF" transform="translate(0,0)"/>
<path d="M0 0 C12.88354696 12.52390771 18.7630185 27.65848668 19.37890625 45.3125 C19.50441276 61.43112175 13.79860649 78.48747537 2.5703125 90.34375 C-11.5091212 102.99265301 -27.66655139 110.00912329 -46.85546875 109.48828125 C-63.54390449 108.42757559 -78.18737853 101.64887694 -89.62109375 89.3125 C-90.09160156 88.83554687 -90.56210937 88.35859375 -91.046875 87.8671875 C-102.00030192 76.14956801 -106.42972418 59.34476756 -106.66015625 43.65234375 C-106.48422727 41.14326143 -106.11382239 38.77979302 -105.62109375 36.3125 C-105.28271484 34.60320312 -105.28271484 34.60320312 -104.9375 32.859375 C-101.33840466 17.31128315 -93.41090747 2.97223993 -79.62109375 -5.6875 C-53.35429354 -20.4843585 -23.83279901 -20.19858407 0 0 Z " fill="#FCFDFD" transform="translate(646.62109375,192.6875)"/>
<path d="M0 0 C12.70469014 11.25658716 18.84925474 28.3082824 20 45 C19.01762934 64.03102376 12.68037252 81.37005764 -1.38476562 94.63378906 C-16.38885354 107.32467116 -34.08678499 110.1679238 -53 109 C-67.0366019 107.26318762 -79.26461588 100.00681676 -89 90 C-89.54914062 89.48308594 -90.09828125 88.96617187 -90.6640625 88.43359375 C-100.70090314 78.15522486 -104.5364024 63.83243219 -106 50 C-106.09023438 49.14921875 -106.18046875 48.2984375 -106.2734375 47.421875 C-107.06584133 30.96425703 -99.53223895 15.6266194 -89.25 3.375 C-65.2267832 -22.68792389 -26.32623423 -21.30031679 0 0 Z " fill="#FCFDFC" transform="translate(790,193)"/>
<path d="M0 0 C1.7734375 0.046875 1.7734375 0.046875 4 1 C5.37488367 3.41355124 6.51237507 5.71988569 7.625 8.25 C22.03741181 38.84093334 52.64477689 58.22237265 83.53393555 69.50488281 C99.85803794 75.23240941 116.69894805 78.80095547 133.96875 79.75390625 C137 80 137 80 141 81 C141 98.49 141 115.98 141 134 C115.11564626 130.4703154 115.11564626 130.4703154 106.125 128.625 C104.55480103 128.30583618 104.55480103 128.30583618 102.95288086 127.98022461 C95.10588048 126.335832 87.54015233 124.28628955 79.96289062 121.66796875 C77.81226423 120.9361138 75.65043095 120.24728861 73.484375 119.5625 C64.31877308 116.6396754 55.63610575 113.2767318 47 109 C45.72462138 108.39703304 44.44854593 107.79553838 43.171875 107.1953125 C20.61125657 96.4428894 -4.19241006 80.44401895 -13.375 56.1875 C-17.77924278 43.53008922 -17.17338834 30.29814246 -12 18 C-8.69405544 11.44294882 -4.96670047 5.4182187 0 0 Z " fill="#FDFEFD" transform="translate(522,265)"/>
<path d="M0 0 C3.21358359 0.25504632 4.02897642 1.03343433 6.18359375 3.51953125 C12.32227766 12.48818036 18.40147302 21.82749643 19 33 C19.05027344 33.89203125 19.10054687 34.7840625 19.15234375 35.703125 C19.68013551 52.17022778 12.82809783 65.8874955 1.97265625 77.90234375 C-7.05232043 87.49452028 -17.69760674 94.42673091 -29 101 C-29.64501465 101.3801123 -30.2900293 101.76022461 -30.95458984 102.15185547 C-63.63227171 121.18699742 -100.95527098 129.0607028 -138 134 C-138 116.51 -138 99.02 -138 81 C-131.131875 80.2265625 -131.131875 80.2265625 -124.125 79.4375 C-93.13277287 75.61267603 -62.87381058 66.44818676 -38 47 C-37.17113281 46.37480469 -36.34226562 45.74960937 -35.48828125 45.10546875 C-19.4201399 32.72013531 -8.48606095 18.22075211 0 0 Z " fill="#FDFEFD" transform="translate(825,265)"/>
<path d="M0 0 C8.03708603 5.45222357 12.45180322 12.36118233 14.5 21.8125 C15.63753604 30.49311482 13.88212641 37.97132552 8.625 45 C2.74857556 51.79461576 -3.49509011 56.34278732 -12.56640625 57.42578125 C-23.40503866 57.80857856 -30.40961773 55.55769016 -38.375 48.25 C-44.52708673 41.68777415 -47.44142476 33.49117539 -47.265625 24.5546875 C-46.24062167 14.69656719 -41.31354113 7.46089512 -34 1 C-23.66842072 -5.86350961 -10.72746904 -6.11447645 0 0 Z " fill="#4F64FE" transform="translate(763,213)"/>
<path d="M0 0 C0.763125 0.61875 1.52625 1.2375 2.3125 1.875 C2.3125 2.535 2.3125 3.195 2.3125 3.875 C3.3025 4.205 4.2925 4.535 5.3125 4.875 C10.715417 12.49038746 13.4362834 20.55582061 12.3125 29.875 C9.09979621 41.13602359 3.16568095 48.0530337 -6.9375 53.6875 C-13.32987814 56.4478451 -20.35367529 57.0279085 -27.125 55.2265625 C-34.97755753 52.036461 -42.89072151 45.72280956 -46.58984375 37.98828125 C-49.76477776 29.83879626 -50.10983585 20.31499867 -46.9140625 12.1015625 C-41.96800266 3.12304623 -34.41536883 -2.87954378 -24.6171875 -5.7265625 C-15.82726664 -7.54148543 -7.46471535 -4.6941236 0 0 Z " fill="#4F64FE" transform="translate(621.6875,214.125)"/>
<path d="M0 0 C1.02223193 3.36560286 1.10964849 6.4098937 1.078125 9.91796875 C1.06362305 11.64732666 1.06362305 11.64732666 1.04882812 13.41162109 C1.03271484 14.59578613 1.01660156 15.77995117 1 17 C0.98356445 18.66603271 0.98356445 18.66603271 0.96679688 20.36572266 C0.92178391 23.68249315 0.83977542 26.99666432 0.75 30.3125 C0.73582031 31.42689453 0.72164062 32.54128906 0.70703125 33.68945312 C0.50429934 40.53773705 -0.28943479 45.18745704 -4 51 C-9.59186929 55.45067147 -14.15585686 56.41766289 -21.140625 56.34375 C-27.06551293 55.63146839 -30.67538636 52.56236481 -34.4375 48.125 C-37.99758839 41.00482322 -37.11997053 32.83870488 -37.0625 25.0625 C-37.05798828 23.90169922 -37.05347656 22.74089844 -37.04882812 21.54492188 C-37.03710647 18.69656066 -37.0206976 15.84830778 -37 13 C-36.43716309 12.81937012 -35.87432617 12.63874023 -35.29443359 12.45263672 C-24.82829578 9.07625682 -14.53824451 5.61820599 -4.51953125 1.06640625 C-2 0 -2 0 0 0 Z " fill="#FBFDFC" transform="translate(794,404)"/>
<path d="M0 0 C3.52961778 0.6585897 6.34542357 1.52441173 9.5625 3.125 C15.98802944 6.14773875 22.64129251 8.39967513 29.35766602 10.67626953 C30.20127686 10.96356934 31.0448877 11.25086914 31.9140625 11.546875 C33.0580249 11.93117676 33.0580249 11.93117676 34.22509766 12.32324219 C36 13 36 13 37 14 C37.29198541 17.9857857 37.31425903 21.97566845 37.35009766 25.97119141 C37.37456118 27.96424934 37.43113064 29.95683018 37.48828125 31.94921875 C37.55953716 39.779451 37.07200448 45.78093806 32 52 C26.85913646 56.30153888 22.42216785 56.57219414 15.8046875 56.31640625 C10.63750484 55.73347896 7.60712952 53.88401631 4.25 50.0625 C1.35655498 46.12419984 -0.25601381 43.52234807 -0.22705078 38.59863281 C-0.22689972 37.7380426 -0.22674866 36.87745239 -0.22659302 35.99078369 C-0.21627045 35.07085632 -0.20594788 34.15092896 -0.1953125 33.203125 C-0.1924826 32.25435486 -0.18965271 31.30558472 -0.18673706 30.32806396 C-0.17555448 27.30191361 -0.1504533 24.2760607 -0.125 21.25 C-0.11496772 19.19661886 -0.1058423 17.14323308 -0.09765625 15.08984375 C-0.07562141 10.05978146 -0.04110462 5.02994114 0 0 Z " fill="#FBFDFB" transform="translate(556,404)"/>
<path d="M0 0 C0.08820927 3.16648655 0.1407905 6.33265092 0.1875 9.5 C0.21263672 10.386875 0.23777344 11.27375 0.26367188 12.1875 C0.33792612 18.91988496 -0.18034771 24.85138827 -4.875 30.09375 C-10.8964689 34.07854559 -15.83684365 35.20620358 -23 34 C-28.00162182 32.62434171 -31.04287276 30.42983025 -33.9375 26.125 C-36.91221722 20.67467918 -37.02409221 15.91761472 -37.01171875 9.796875 C-37.01002686 8.71245117 -37.00833496 7.62802734 -37.0065918 6.51074219 C-37.0044165 5.68219727 -37.00224121 4.85365234 -37 4 C-33.01743895 3.42317298 -29.03388487 2.85381319 -25.04931641 2.29101562 C-23.69714379 2.09899874 -22.34524677 1.90502971 -20.99365234 1.70898438 C-13.95746166 0.68969881 -7.1169462 -0.2904876 0 0 Z " fill="#FBFDFB" transform="translate(724,426)"/>
<path d="M0 0 C12.12769965 0.54025083 24.00849656 2.15821873 36 4 C36.79485661 22.19338465 36.79485661 22.19338465 32 28 C27.73272749 32.41211465 23.92686344 34.15077793 17.8125 34.375 C12.11567898 34.31471618 8.13949304 32.96432518 4 29 C-0.28335591 23.91544083 -0.67025284 19.7515967 -0.8125 13.375 C-0.85052734 12.529375 -0.88855469 11.68375 -0.92773438 10.8125 C-1.06994968 6.97571263 -1.07134884 3.71379954 0 0 Z " fill="#FBFDFC" transform="translate(627,426)"/>
<path d="M0 0 C0.66 1.32 1.32 2.64 2 4 C1.34 4 0.68 4 0 4 C-0.433125 4.86625 -0.433125 4.86625 -0.875 5.75 C-1.431875 6.86375 -1.431875 6.86375 -2 8 C-2.2475 8.66 -2.495 9.32 -2.75 10 C-5.45595107 14.32952172 -10.32739417 16.350845 -15 18 C-14.195625 17.071875 -13.39125 16.14375 -12.5625 15.1875 C-8.28354449 10.20051588 -4.14725424 5.09651465 0 0 Z " fill="#EEF9FB" transform="translate(815,284)"/>
<path d="M0 0 C0 4.15885005 -2.30255461 5.98621737 -4.9375 8.9375 C-9.10989136 13.36318589 -9.10989136 13.36318589 -11 19 C-11.99 18.67 -12.98 18.34 -14 18 C-10.6943755 10.75305398 -6.80359798 4.44850637 0 0 Z " fill="#EFF7FA" transform="translate(563,190)"/>
<path d="M0 0 C0.66 0.33 1.32 0.66 2 1 C1.67 1.66 1.34 2.32 1 3 C0.34 3 -0.32 3 -1 3 C-1.33 3.99 -1.66 4.98 -2 6 C-5 7 -5 7 -7.125 7.5 C-8.99905107 7.83203898 -8.99905107 7.83203898 -10 9 C-11.66617115 9.04063832 -13.33388095 9.042721 -15 9 C-12.0889878 6.67933294 -9.16348341 4.98861978 -5.8125 3.375 C-2.68874848 2.00424981 -2.68874848 2.00424981 0 0 Z " fill="#EFF9FC" transform="translate(777,319)"/>
<path d="M0 0 C1.9750258 0.46083935 3.94912024 0.93065248 5.90234375 1.4765625 C8.68575196 2.17111874 11.1489864 2.26521057 14 2 C14.99 1.34 15.98 0.68 17 0 C17.99 0.33 18.98 0.66 20 1 C16.18741701 3.65619293 13.63197836 4.38930576 9 4.3125 C7.4840625 4.30669922 7.4840625 4.30669922 5.9375 4.30078125 C2.94774501 3.99464942 0.71647787 3.2533749 -2 2 C-1.34 1.34 -0.68 0.68 0 0 Z " fill="#ECFAFC" transform="translate(566,456)"/>
<path d="M0 0 C0.75410156 0.00451172 1.50820313 0.00902344 2.28515625 0.01367188 C4.14847127 0.02546501 6.01174555 0.04340058 7.875 0.0625 C4.40518302 2.37571132 2.42834769 2.49978755 -1.6875 2.8125 C-2.84378906 2.91046875 -4.00007812 3.0084375 -5.19140625 3.109375 C-8.125 3.0625 -8.125 3.0625 -10.125 1.0625 C-6.93675432 -0.53162284 -3.49603338 -0.03924735 0 0 Z " fill="#F6FBEF" transform="translate(643.125,427.9375)"/>
<path d="M0 0 C-3.11016455 3.28788824 -6.01618925 5.83735988 -10 8 C-10.33 7.01 -10.66 6.02 -11 5 C-4.85714286 -0.71428571 -4.85714286 -0.71428571 0 0 Z " fill="#EDFAF9" transform="translate(817,351)"/>
<path d="M0 0 C3.82946843 1.45255699 5.12050295 3.42895561 7 7 C5.02 7 3.04 7 1 7 C0 2.25 0 2.25 0 0 Z " fill="#ECF9F8" transform="translate(644,192)"/>
<path d="M0 0 C-0.125 1.75 -0.125 1.75 -1 4 C-4.0625 6.25 -4.0625 6.25 -7 8 C-7 5 -7 5 -4.625 2.3125 C-2 0 -2 0 0 0 Z " fill="#EBF9FA" transform="translate(707,192)"/>
<path d="M0 0 C-2.50600314 2.50600314 -4.18594425 2.97054791 -7.69921875 3.09765625 C-8.68535156 3.08605469 -9.67148437 3.07445312 -10.6875 3.0625 C-11.68136719 3.05347656 -12.67523437 3.04445313 -13.69921875 3.03515625 C-14.83810547 3.01775391 -14.83810547 3.01775391 -16 3 C-16 2.67 -16 2.34 -16 2 C-10.61972975 0.80911014 -5.54708616 -0.2919519 0 0 Z " fill="#EFFAFE" transform="translate(786,457)"/>
<path d="M0 0 C0.66 0 1.32 0 2 0 C0.73058503 3.91402949 -0.51167694 5.79072873 -4 8 C-4.66 7.67 -5.32 7.34 -6 7 C-3.375 3.125 -3.375 3.125 0 2 C0 1.34 0 0.68 0 0 Z " fill="#ECF8FA" transform="translate(720,450)"/>
<path d="M0 0 C1.16959987 0.97566112 2.33561177 1.955625 3.5 2.9375 C4.1496875 3.48277344 4.799375 4.02804687 5.46875 4.58984375 C5.9740625 5.05519531 6.479375 5.52054687 7 6 C7 6.33 7 6.66 7 7 C5.35 7 3.7 7 2 7 C1.87625 6.195625 1.7525 5.39125 1.625 4.5625 C1.315625 3.2940625 1.315625 3.2940625 1 2 C0.34 1.67 -0.32 1.34 -1 1 C-0.67 0.67 -0.34 0.34 0 0 Z " fill="#EDFAFC" transform="translate(541,293)"/>
<path d="M0 0 C2.31 0 4.62 0 7 0 C1.85714286 4.42857143 1.85714286 4.42857143 -2 5 C-1.34 3.35 -0.68 1.7 0 0 Z " fill="#EEFBFD" transform="translate(796,361)"/>
<path d="M0 0 C1.32 0 2.64 0 4 0 C5.8125 1.8125 5.8125 1.8125 7 4 C6.67 4.99 6.34 5.98 6 7 C1.125 3.375 1.125 3.375 0 0 Z " fill="#EFF9FA" transform="translate(557,281)"/>
<path d="M0 0 C0 0.66 0 1.32 0 2 C-1.62626404 3.38232443 -3.2925002 4.71937515 -5 6 C-6.32 5.01 -7.64 4.02 -9 3 C-2.25 0 -2.25 0 0 0 Z " fill="#ECFAF7" transform="translate(794,404)"/>
<path d="M0 0 C1.98 0.495 1.98 0.495 4 1 C4 1.99 4 2.98 4 4 C3.01 4.33 2.02 4.66 1 5 C0.34 4.67 -0.32 4.34 -1 4 C-0.67 2.68 -0.34 1.36 0 0 Z " fill="#F3F7F5" transform="translate(825,265)"/>
<path d="M0 0 C0.66 0.66 1.32 1.32 2 2 C0.02 4.64 -1.96 7.28 -4 10 C-4 5.75354935 -2.18249194 3.61475228 0 0 Z " fill="#EAF7FA" transform="translate(696,202)"/>
<path d="M0 0 C0.66 1.32 1.32 2.64 2 4 C1.34 4 0.68 4 0 4 C-0.33 4.99 -0.66 5.98 -1 7 C-1.625 5.1875 -1.625 5.1875 -2 3 C-1.34 2.01 -0.68 1.02 0 0 Z M-5 8 C-4.01 8.495 -4.01 8.495 -3 9 C-3.99 9.495 -3.99 9.495 -5 10 C-5 9.34 -5 8.68 -5 8 Z " fill="#F5FBF2" transform="translate(815,284)"/>
<path d="M0 0 C1.33617352 0.97528737 2.6688751 1.95533319 4 2.9375 C4.7425 3.48277344 5.485 4.02804687 6.25 4.58984375 C6.8275 5.05519531 7.405 5.52054687 8 6 C8 6.33 8 6.66 8 7 C6.35 7 4.7 7 3 7 C3 6.34 3 5.68 3 5 C2.01 4.34 1.02 3.68 0 3 C0 2.01 0 1.02 0 0 Z " fill="#F0F7FC" transform="translate(723,259)"/>
</svg>
